<svg width="1180" height="620" viewBox="0 0 1180 620" xmlns="http://www.w3.org/2000/svg" role="img">
<title>ESPLeafSOC wiring diagram for LilyGo T-CAN485</title>
<desc>Wiring diagram showing OBD2 connection to the LilyGo T-CAN485 board (power and EV-CAN) and the T-CAN485 IO header connection to a 1.3 inch SPI OLED display</desc>
<defs>
  <marker id="arrow" viewBox="0 0 10 10" refX="8" refY="5" markerWidth="6" markerHeight="6" orient="auto-start-reverse">
    <path d="M2 1L8 5L2 9" fill="none" stroke="context-stroke" stroke-width="1.5" stroke-linecap="round" stroke-linejoin="round"/>
  </marker>
</defs>

<rect x="0" y="0" width="1180" height="620" fill="#ffffff"/>

<text x="40" y="30" font-family="sans-serif" font-size="14" font-weight="600" fill="#2c2c2a">EV-CAN</text>

<path d="M40 70 L40 480 Q40 500 60 500 L210 500 Q230 500 230 480 L230 70 Z" fill="none" stroke="#5f5e5a" stroke-width="1"/>

<g font-family="sans-serif" font-size="14" fill="#2c2c2a">
<text x="60" y="95">1</text><text x="190" y="95">9</text>
<text x="60" y="135">2</text><text x="190" y="135">10</text>
<text x="60" y="175">3</text><text x="190" y="175">11</text>
<text x="60" y="215">4</text><text x="190" y="215">12</text>
<text x="60" y="255">5</text><text x="190" y="255">13</text>
<text x="60" y="295">6</text><text x="190" y="295">14</text>
<text x="60" y="335">7</text><text x="190" y="335">15</text>
<text x="60" y="375">8</text><text x="190" y="375">16</text>
</g>

<circle cx="190" cy="215" r="13" fill="none" stroke="#534AB7" stroke-width="2"/>
<circle cx="190" cy="255" r="13" fill="none" stroke="#D4537E" stroke-width="2"/>
<circle cx="60" cy="215" r="13" fill="none" stroke="#444441" stroke-width="2"/>
<circle cx="60" cy="375" r="13" fill="none" stroke="#D85A30" stroke-width="2"/>

<text x="30" y="510" font-family="sans-serif" font-size="12" fill="#5f5e5a">12V</text>

<rect x="280" y="100" width="220" height="380" rx="12" fill="#FAECE7" stroke="#993C1D" stroke-width="1"/>
<text x="390" y="128" font-family="sans-serif" font-size="14" font-weight="600" fill="#4A1B0C" text-anchor="middle">LilyGo T-CAN485</text>
<text x="390" y="146" font-family="sans-serif" font-size="12" fill="#712B13" text-anchor="middle">ESP32, onboard CAN + WiFi</text>

<rect x="300" y="170" width="180" height="30" rx="4" fill="#F5C4B3" stroke="#993C1D" stroke-width="1"/>
<text x="390" y="190" font-family="sans-serif" font-size="13" font-weight="600" fill="#4A1B0C" text-anchor="middle">CAN H / CAN L terminal</text>

<rect x="300" y="212" width="180" height="30" rx="4" fill="#F5C4B3" stroke="#993C1D" stroke-width="1"/>
<text x="390" y="232" font-family="sans-serif" font-size="13" font-weight="600" fill="#4A1B0C" text-anchor="middle">VIN / GND power terminal</text>

<rect x="300" y="430" width="180" height="34" rx="4" fill="#F5C4B3" stroke="#993C1D" stroke-width="1"/>
<text x="390" y="451" font-family="sans-serif" font-size="13" font-weight="600" fill="#4A1B0C" text-anchor="middle">12-pin IO header</text>

<line x1="190" y1="215" x2="240" y2="215" stroke="#534AB7" stroke-width="2"/>
<line x1="240" y1="215" x2="240" y2="178" stroke="#534AB7" stroke-width="2"/>
<line x1="240" y1="178" x2="298" y2="178" stroke="#534AB7" stroke-width="2" marker-end="url(#arrow)"/>
<text x="245" y="172" font-family="sans-serif" font-size="12" fill="#5f5e5a">CAN H (pin 12)</text>

<line x1="190" y1="255" x2="245" y2="255" stroke="#D4537E" stroke-width="2"/>
<line x1="245" y1="255" x2="245" y2="192" stroke="#D4537E" stroke-width="2"/>
<line x1="245" y1="192" x2="298" y2="192" stroke="#D4537E" stroke-width="2" marker-end="url(#arrow)"/>
<text x="250" y="207" font-family="sans-serif" font-size="12" fill="#5f5e5a">CAN L (pin 13)</text>

<line x1="60" y1="375" x2="260" y2="375" stroke="#D85A30" stroke-width="2.5"/>
<line x1="260" y1="375" x2="260" y2="220" stroke="#D85A30" stroke-width="2.5"/>
<line x1="260" y1="220" x2="298" y2="220" stroke="#D85A30" stroke-width="2.5" marker-end="url(#arrow)"/>
<text x="265" y="214" font-family="sans-serif" font-size="12" fill="#5f5e5a">12V (pin 8)</text>

<line x1="60" y1="215" x2="20" y2="215" stroke="#444441" stroke-width="2"/>
<line x1="20" y1="215" x2="20" y2="525" stroke="#444441" stroke-width="2"/>
<line x1="20" y1="525" x2="290" y2="525" stroke="#444441" stroke-width="2"/>
<line x1="290" y1="525" x2="290" y2="234" stroke="#444441" stroke-width="2"/>
<line x1="290" y1="234" x2="298" y2="234" stroke="#444441" stroke-width="2" marker-end="url(#arrow)"/>
<text x="295" y="518" font-family="sans-serif" font-size="12" fill="#5f5e5a">GND (pin 4)</text>

<text x="390" y="290" font-family="sans-serif" font-size="12" fill="#712B13" text-anchor="middle">CAN_SE (GPIO23) must be</text>
<text x="390" y="305" font-family="sans-serif" font-size="12" fill="#712B13" text-anchor="middle">driven LOW to enable RX</text>

<rect x="310" y="340" width="160" height="76" rx="6" fill="#F1EFE8" stroke="#5f5e5a" stroke-width="1"/>
<text x="390" y="358" font-family="sans-serif" font-size="13" font-weight="600" fill="#2c2c2a" text-anchor="middle">IO header pinout</text>
<g font-family="sans-serif" font-size="12" fill="#444441">
<text x="330" y="378">IO25</text><text x="450" y="378" text-anchor="end">GND</text>
<text x="330" y="392">IO33</text><text x="450" y="392" text-anchor="end">IO32</text>
<text x="330" y="406">IO05</text><text x="450" y="406" text-anchor="end">VDD</text>
</g>

<rect x="950" y="80" width="190" height="420" rx="12" fill="#E1F5EE" stroke="#0F6E56" stroke-width="1"/>
<text x="1045" y="108" font-family="sans-serif" font-size="14" font-weight="600" fill="#04342C" text-anchor="middle">OLED display</text>
<text x="1045" y="126" font-family="sans-serif" font-size="12" fill="#085041" text-anchor="middle">1.3in 128x64 SPI</text>
<text x="1045" y="142" font-family="sans-serif" font-size="12" fill="#085041" text-anchor="middle">SH1106 / SSD1306</text>

<rect x="970" y="430" width="150" height="30" rx="4" fill="#9FE1CB" stroke="#0F6E56" stroke-width="1"/>
<text x="1045" y="450" font-family="sans-serif" font-size="11" font-weight="600" fill="#04342C" text-anchor="middle">GND VCC CLK MOSI RES DC CS</text>

<rect x="610" y="160" width="150" height="280" rx="6" fill="#F1EFE8" stroke="#5f5e5a" stroke-width="1"/>
<text x="685" y="185" font-family="sans-serif" font-size="13" font-weight="600" fill="#2c2c2a" text-anchor="middle">OLED signal map</text>
<g font-family="sans-serif" font-size="12" fill="#444441">
<text x="625" y="210">VCC</text><text x="745" y="210" text-anchor="end">VDD</text>
<text x="625" y="232">GND</text><text x="745" y="232" text-anchor="end">GND</text>
<text x="625" y="254">CLK</text><text x="745" y="254" text-anchor="end">IO33</text>
<text x="625" y="276">MOSI</text><text x="745" y="276" text-anchor="end">IO32</text>
<text x="625" y="298">RES</text><text x="745" y="298" text-anchor="end">IO05</text>
<text x="625" y="320">DC</text><text x="745" y="320" text-anchor="end">IO18</text>
<text x="625" y="342">CS</text><text x="745" y="342" text-anchor="end">IO25</text>
</g>
<text x="685" y="400" font-family="sans-serif" font-size="12" fill="#993C1D" text-anchor="middle">VCC must be 3.3V,</text>
<text x="685" y="416" font-family="sans-serif" font-size="12" fill="#993C1D" text-anchor="middle">not 5V</text>

<line x1="490" y1="447" x2="610" y2="210" stroke="#0F6E56" stroke-width="1.5"/>
<line x1="490" y1="447" x2="610" y2="232" stroke="#0F6E56" stroke-width="1.5"/>
<line x1="490" y1="447" x2="610" y2="254" stroke="#0F6E56" stroke-width="1.5"/>
<line x1="490" y1="447" x2="610" y2="276" stroke="#0F6E56" stroke-width="1.5"/>
<line x1="490" y1="447" x2="610" y2="298" stroke="#0F6E56" stroke-width="1.5"/>
<line x1="490" y1="447" x2="610" y2="320" stroke="#0F6E56" stroke-width="1.5"/>
<line x1="490" y1="447" x2="610" y2="342" stroke="#0F6E56" stroke-width="1.5"/>

<line x1="760" y1="210" x2="970" y2="442" stroke="#0F6E56" stroke-width="1.5"/>
<line x1="760" y1="232" x2="985" y2="442" stroke="#0F6E56" stroke-width="1.5"/>
<line x1="760" y1="254" x2="1000" y2="442" stroke="#0F6E56" stroke-width="1.5"/>
<line x1="760" y1="276" x2="1015" y2="442" stroke="#0F6E56" stroke-width="1.5"/>
<line x1="760" y1="298" x2="1045" y2="442" stroke="#0F6E56" stroke-width="1.5"/>
<line x1="760" y1="320" x2="1075" y2="442" stroke="#0F6E56" stroke-width="1.5"/>
<line x1="760" y1="342" x2="1095" y2="442" stroke="#0F6E56" stroke-width="1.5"/>

<rect x="40" y="540" width="1100" height="60" rx="6" fill="none" stroke="#d3d1c7" stroke-width="1"/>
<line x1="60" y1="557" x2="90" y2="557" stroke="#D85A30" stroke-width="2.5"/>
<text x="96" y="561" font-family="sans-serif" font-size="12" fill="#444441">Power (12V / GND)</text>
<line x1="240" y1="557" x2="270" y2="557" stroke="#534AB7" stroke-width="2"/>
<text x="276" y="561" font-family="sans-serif" font-size="12" fill="#444441">EV-CAN (H/L)</text>
<line x1="400" y1="557" x2="430" y2="557" stroke="#0F6E56" stroke-width="1.5"/>
<text x="436" y="561" font-family="sans-serif" font-size="12" fill="#444441">OLED SPI signals</text>
<text x="60" y="588" font-family="sans-serif" font-size="12" fill="#5f5e5a">No MCP2515, Arduino, or 5V buck converter needed — the T-CAN485 has an onboard CAN transceiver and accepts the Leaf's switched 12V directly.</text>

</svg>
